<svg width="10" height="10" viewBox="0 0 10 10" fill="none" xmlns="http://www.w3.org/2000/svg">
<path d="M9.70594 9.84047C9.70594 9.92869 9.63463 10 9.54642 10H0.453472C0.365253 10 0.293945 9.92869 0.293945 9.84047V9.5613C0.293945 9.47308 0.365253 9.40177 0.453472 9.40177H9.54642C9.63463 9.40177 9.70594 9.47308 9.70594 9.5613V9.84047V9.84047Z" fill="#FDFEFF"/>
<path d="M0.453511 9.40177C0.372482 9.40177 0.308343 9.4632 0.297974 9.54135C0.308343 9.61952 0.372482 9.68093 0.453511 9.68093H9.54646C9.62749 9.68093 9.69163 9.6195 9.70199 9.54135C9.69179 9.46318 9.62751 9.40177 9.54646 9.40177H0.453511Z" fill="white"/>
<path d="M8.58948 3.42325C8.49312 3.42325 8.3955 3.39676 8.30791 3.34125L4.99999 1.24845L1.69209 3.34125C1.44562 3.49711 1.12003 3.42388 0.96433 3.17774C0.808469 2.93127 0.881701 2.60567 1.12801 2.44997L4.99999 0L8.87183 2.44983C9.11814 2.60569 9.19151 2.93129 9.03551 3.17759C8.93532 3.33631 8.76448 3.42293 8.58948 3.42325Z" fill="white"/>
<path d="M1.69212 3.34125L5.00002 1.24845L8.30793 3.34125C8.39551 3.39676 8.49298 3.42325 8.5895 3.42325C8.74569 3.42293 8.89563 3.35067 8.99821 3.2229C8.96263 3.17935 8.92196 3.13946 8.87202 3.10788L5.00002 0.658035L1.12804 3.10786C1.07779 3.1396 1.03632 3.18012 1.00073 3.22415C1.16664 3.43075 1.46273 3.48642 1.69212 3.34125Z" fill="white"/>
<path d="M4.64103 8.75442C4.64103 8.82557 4.58343 8.88347 4.51198 8.88347H2.37722C2.30591 8.88347 2.24817 8.82573 2.24817 8.75442V6.6195C2.24817 6.54835 2.30577 6.49045 2.37722 6.49045H4.51214C4.58345 6.49045 4.64119 6.54819 4.64119 6.6195V8.75442H4.64103Z" fill="white"/>
<path d="M4.64101 6.6195V8.75443C4.64101 8.82557 4.58341 8.88347 4.51196 8.88347H2.3772" fill="white"/>
<path d="M2.24817 6.6195C2.24817 6.54835 2.30577 6.49045 2.37722 6.49045H4.51214C4.58345 6.49045 4.64119 6.54819 4.64119 6.6195V8.75442C4.64119 8.82557 4.58359 8.88347 4.51214 8.88347" fill="white"/>
<path d="M7.75175 8.75442C7.75175 8.82557 7.69415 8.88347 7.6227 8.88347H5.48793C5.41663 8.88347 5.35889 8.82573 5.35889 8.75442V6.6195C5.35889 6.54835 5.41648 6.49045 5.48793 6.49045H7.62286C7.69417 6.49045 7.75191 6.54819 7.75191 6.6195V8.75442H7.75175Z" fill="white"/>
<path d="M7.75185 6.6195V8.75443C7.75185 8.82557 7.69425 8.88347 7.6228 8.88347H5.48804" fill="white"/>
<path d="M5.35889 6.6195C5.35889 6.54835 5.41648 6.49045 5.48793 6.49045H7.62286C7.69417 6.49045 7.75191 6.54819 7.75191 6.6195V8.75442C7.75191 8.82557 7.69431 8.88347 7.62286 8.88347" fill="white"/>
<path d="M6.19645 5.75009C6.19645 5.82124 6.13885 5.87914 6.0674 5.87914H3.93264C3.86133 5.87914 3.80359 5.8214 3.80359 5.75009V3.61516C3.80359 3.54402 3.86119 3.48611 3.93264 3.48611H6.06756C6.13887 3.48611 6.19661 3.54385 6.19661 3.61516V5.75009H6.19645Z" fill="white"/>
<path d="M6.19643 3.61517V5.75009C6.19643 5.82124 6.13883 5.87914 6.06738 5.87914H3.93262" fill="white"/>
<path d="M3.80359 3.61516C3.80359 3.54402 3.86119 3.48611 3.93264 3.48611H6.06756C6.13887 3.48611 6.19661 3.54385 6.19661 3.61516V5.75009C6.19661 5.82124 6.13901 5.87914 6.06756 5.87914" fill="white"/>
</svg>
